<?xml version="1.0" standalone="no"?><!DOCTYPE svg PUBLIC "-//W3C//DTD SVG 1.1//EN" "http://www.w3.org/Graphics/SVG/1.1/DTD/svg11.dtd"><svg t="1597225268501" class="icon" viewBox="0 0 1024 1024" version="1.1" xmlns="http://www.w3.org/2000/svg" p-id="9554" xmlns:xlink="http://www.w3.org/1999/xlink" width="64" height="64"><defs><style type="text/css"></style></defs><path d="M672 491.968C588.352 560.256 512 634.176 512 634.176L373.504 467.2l-67.2 67.2c0 0 59.392 68.352 112 134.4C471.104 735.104 512 797.12 512 797.12s108.416-123.968 216.448-224.448c60.736-56.448 135.104-121.728 190.784-169.984l0 458.88c0 54.336-44.096 98.432-98.432 98.432L203.136 960c-54.336 0-98.432-44.096-98.432-98.432L104.704 310.144c0-12.352 4.8-24.256 13.44-33.088l193.92-198.784C321.024 69.184 333.248 64 345.984 64l474.816 0c54.336 0 98.432 44.096 98.432 98.432l0 150.208C861.056 352.128 746.176 431.36 672 491.968z" p-id="9555"></path></svg>