<?xml version="1.0" standalone="no"?><!DOCTYPE svg PUBLIC "-//W3C//DTD SVG 1.1//EN" "http://www.w3.org/Graphics/SVG/1.1/DTD/svg11.dtd"><svg t="1597226851427" class="icon" viewBox="0 0 1024 1024" version="1.1" xmlns="http://www.w3.org/2000/svg" p-id="3854" xmlns:xlink="http://www.w3.org/1999/xlink" width="64" height="64"><defs><style type="text/css"></style></defs><path d="M896 42.666667H128C91.733333 42.666667 64 70.4 64 106.666667v810.666666c0 36.266667 27.733333 64 64 64h768c36.266667 0 64-27.733333 64-64V106.666667c0-36.266667-27.733333-64-64-64z m-128 341.333333c-8.533333 106.666667-140.8 192-256 192s-247.466667-85.333333-256-192c-25.6-4.266667-42.666667-25.6-42.666667-53.333333 0-29.866667 23.466667-53.333333 53.333334-53.333334s53.333333 23.466667 53.333333 53.333334c0 17.066667-8.533333 32-21.333333 42.666666 0 87.466667 119.466667 160 213.333333 160s213.333333-72.533333 213.333333-160c-12.8-10.666667-21.333333-25.6-21.333333-42.666666 0-29.866667 23.466667-53.333333 53.333333-53.333334s53.333333 23.466667 53.333334 53.333334c0 25.6-19.2 46.933333-42.666667 53.333333z" p-id="3855"></path></svg>
