<?xml version="1.0" standalone="no"?><!DOCTYPE svg PUBLIC "-//W3C//DTD SVG 1.1//EN" "http://www.w3.org/Graphics/SVG/1.1/DTD/svg11.dtd"><svg t="1597225519105" class="icon" viewBox="0 0 1024 1024" version="1.1" xmlns="http://www.w3.org/2000/svg" p-id="841" xmlns:xlink="http://www.w3.org/1999/xlink" width="64" height="64"><defs><style type="text/css"></style></defs><path d="M897.8 93.32H126.25999999c-35.52 0-64.26000001 28.8-64.25999999 64.32v548.10000001c0 35.52 28.74000001 64.2 64.26000001 64.19999998h321.41999999v96.42000001H287a32.10000001 32.10000001 0 0 0-32.10000001 32.10000001v32.09999999h514.20000002v-32.10000001a32.04 32.04 0 0 0-32.10000001-32.09999999h-160.74000001V770h321.36000002c35.52 0 64.32-28.74000001 64.31999998-64.2V157.69999999a64.2 64.2 0 0 0-64.13999999-64.37999999zM512 737.90000001a32.10000001 32.10000001 0 1 1 0-64.20000002 32.10000001 32.10000001 0 0 1 0 64.2z m360-95.88000002H152V180.73999999h720v461.28000002z" p-id="842"></path></svg>